<svg xmlns="http://www.w3.org/2000/svg" data-name="Layer 1" viewBox="0 0 512 512"><path d="M492,162.2V97.542C492,74.94,474.3,57,452.548,57H59.448C37.7,57,20,74.94,20,97.542V414.458C20,437.06,37.7,455,59.448,455h393.1C474.3,455,492,437.06,492,414.458V162.35c0-.026,0-.051,0-.077S492,162.222,492,162.2ZM59.448,73h393.1C465.478,73,476,83.762,476,97.542V154H36V97.542C36,83.762,46.519,73,59.448,73Zm393.1,366H59.448C46.519,439,36,428.238,36,414.458V170H476V414.458C476,428.238,465.478,439,452.548,439Z"/><path d="M143.31 144.032c15.972 0 28.966-13.455 28.966-29.994S159.282 84.044 143.31 84.044 114.344 97.5 114.344 114.038 127.338 144.032 143.31 144.032zm0-43.988c7.15 0 12.966 6.278 12.966 13.994s-5.816 13.994-12.966 13.994-12.966-6.278-12.966-13.994S136.16 100.044 143.31 100.044zM211.448 144.032c15.972 0 28.966-13.455 28.966-29.994S227.42 84.044 211.448 84.044 182.482 97.5 182.482 114.038 195.477 144.032 211.448 144.032zm0-43.988c7.15 0 12.966 6.278 12.966 13.994s-5.816 13.994-12.966 13.994-12.966-6.278-12.966-13.994S204.3 100.044 211.448 100.044zM75.172 144.032c15.972 0 28.966-13.455 28.966-29.994S91.144 84.044 75.172 84.044 46.206 97.5 46.206 114.038 59.2 144.032 75.172 144.032zm0-43.988c7.149 0 12.966 6.278 12.966 13.994s-5.817 13.994-12.966 13.994-12.966-6.278-12.966-13.994S68.022 100.044 75.172 100.044zM281 338.836V267.364c0-.164.171-.325.162-.486 0-.123.118-.241.117-.364a7.958 7.958 0 0 0-5.194-7.433L180.57 223.964a7.962 7.962 0 0 0-5.507 0L79.531 259.081a8 8 0 0 0-5.237 7.433 7.876 7.876 0 0 0 4.959 7.53L105 284.119v67.513a8.132 8.132 0 0 0 5.347 7.5 192.642 192.642 0 0 0 134.605 0 7.86 7.86 0 0 0 5.048-7.5V284.119l15-5.832v60.666c-6 3.1-11.368 9.948-11.368 17.9A19.777 19.777 0 0 0 273.4 376.527a19.631 19.631 0 0 0 7.6-37.691zm-160 7.148V331.838a195.4 195.4 0 0 0 56.5 8.488 190.421 190.421 0 0 0 56.5-8.488v14.146C198 358.361 158 358.361 121 345.984zm113-30.953c-36 12.38-76 12.38-113 0V290.346l53.792 20.881a8.367 8.367 0 0 0 2.971.544 7.192 7.192 0 0 0 2.744-.544L234 290.346zm6.007-44.041a8.077 8.077 0 0 0-.918.357l-61.255 23.84L116.58 271.348a7.672 7.672 0 0 0-.919-.358L104.9 266.8 177.834 240 250.766 266.8zm33.486 89.537a3.675 3.675 0 1 1 3.676-3.675A3.68 3.68 0 0 1 273.493 360.527zM429.7 279H309a8 8 0 0 0 0 16H429.7a8 8 0 0 0 0-16zM429.7 305H309a8 8 0 0 0 0 16H429.7a8 8 0 0 0 0-16zM429.7 332H309a8 8 0 0 0 0 16H429.7a8 8 0 0 0 0-16zM309 268h41.147a8 8 0 1 0 0-16H309a8 8 0 0 0 0 16z"/></svg>